# xmcd
#
# Track frame offsets:
#	150
#	28922
#	50855
#	72017
#	101220
#	121705
#	135285
#	157185
#	177830
#	195440
#	209872
#	235672
#
# Disc length: 3342 seconds
#
# Revision: 4
# Processed by: cddbd v1.5.2PL0 Copyright (c) Steve Scherf et al.
# Submitted via: audiograbber 1.83.01
#
DISCID=ac0d0c0c
DTITLE=Luther Allison - Bad Love
DYEAR=1994
DGENRE=Blues
TTITLE0=Bad Love
TTITLE1=I wanna know
TTITLE2=She was born that way
TTITLE3=Put your money where your mouth is
TTITLE4=Nobody but you
TTITLE5=You've been teasin' me
TTITLE6=Middle of the road
TTITLE7=Love string
TTITLE8=Gave it all
TTITLE9=Soul fixin' man
TTITLE10=Freedom
TTITLE11=Things that I used to do
EXTD=
EXTT0=
EXTT1=
EXTT2=
EXTT3=
EXTT4=
EXTT5=
EXTT6=
EXTT7=
EXTT8=
EXTT9=
EXTT10=
EXTT11=
PLAYORDER=
